REM DIRINDEX 1\2\6,1\2\7,1\2\8,1\2\9,1\3\10,1\3\11,1\4\12,1\4\13,1\4\14,1\5\15,1\5\16,1\5\17
REM DIRNAME cjc020,folder01,folder02,folder03,folder04,folder05,folder06,folder07,folder08,folder09,folder10,folder11,folder12,folder13,folder14,folder15,folder16
TITLE ""
FILE "1900_2_sec15_1450_1466.mp3" MP3
  TRACK 01 AUDIO
    TITLE "0:"
    INDEX 01 00:00:00
  TRACK 02 AUDIO
    TITLE "13:cjc020_5045"
    INDEX 01 00:00:19
  TRACK 03 AUDIO
    TITLE "0:"
    INDEX 01 00:01:26
  TRACK 04 AUDIO
    TITLE "14:cjc020_5046"
    INDEX 01 00:01:28
  TRACK 05 AUDIO
    TITLE "0:"
    INDEX 01 00:03:43
  TRACK 06 AUDIO
    TITLE "13:cjc020_5047"
    INDEX 01 00:04:23
  TRACK 07 AUDIO
    TITLE "0:"
    INDEX 01 00:05:32
  TRACK 08 AUDIO
    TITLE "14:cjc020_5048"
    INDEX 01 00:05:34
  TRACK 09 AUDIO
    TITLE "0:"
    INDEX 01 00:07:56
  TRACK 10 AUDIO
    TITLE "13:cjc020_5049"
    INDEX 01 00:08:34
  TRACK 11 AUDIO
    TITLE "0:"
    INDEX 01 00:09:47
  TRACK 12 AUDIO
    TITLE "14:cjc020_5050"
    INDEX 01 00:09:51
  TRACK 13 AUDIO
    TITLE "0:"
    INDEX 01 00:12:11
  TRACK 14 AUDIO
    TITLE "13:cjc020_5051"
    INDEX 01 00:12:65
  TRACK 15 AUDIO
    TITLE "0:"
    INDEX 01 00:14:02
  TRACK 16 AUDIO
    TITLE "14:cjc020_5052"
    INDEX 01 00:14:06
  TRACK 17 AUDIO
    TITLE "0:"
    INDEX 01 00:15:23
  TRACK 18 AUDIO
    TITLE "13:cjc020_5053"
    INDEX 01 00:16:00
  TRACK 19 AUDIO
    TITLE "0:"
    INDEX 01 00:17:21
  TRACK 20 AUDIO
    TITLE "14:cjc020_5054"
    INDEX 01 00:17:23
  TRACK 21 AUDIO
    TITLE "0:"
    INDEX 01 00:20:10
  TRACK 22 AUDIO
    TITLE "13:cjc020_5055"
    INDEX 01 00:20:63
  TRACK 23 AUDIO
    TITLE "0:"
    INDEX 01 00:21:64
  TRACK 24 AUDIO
    TITLE "14:cjc020_5056"
    INDEX 01 00:21:70
  TRACK 25 AUDIO
    TITLE "0:"
    INDEX 01 00:26:22
  TRACK 26 AUDIO
    TITLE "13:cjc020_5057"
    INDEX 01 00:27:00
  TRACK 27 AUDIO
    TITLE "0:"
    INDEX 01 00:28:04
  TRACK 28 AUDIO
    TITLE "14:cjc020_5058"
    INDEX 01 00:28:08
  TRACK 29 AUDIO
    TITLE "0:"
    INDEX 01 00:30:10
  TRACK 30 AUDIO
    TITLE "13:cjc020_5059"
    INDEX 01 00:30:63
  TRACK 31 AUDIO
    TITLE "0:"
    INDEX 01 00:31:67
  TRACK 32 AUDIO
    TITLE "14:cjc020_5060"
    INDEX 01 00:31:71
  TRACK 33 AUDIO
    TITLE "0:"
    INDEX 01 00:33:68
  TRACK 34 AUDIO
    TITLE "13:cjc020_5061"
    INDEX 01 00:34:47
  TRACK 35 AUDIO
    TITLE "0:"
    INDEX 01 00:35:49
  TRACK 36 AUDIO
    TITLE "14:cjc020_5062"
    INDEX 01 00:35:55
  TRACK 37 AUDIO
    TITLE "0:"
    INDEX 01 00:36:64
  TRACK 38 AUDIO
    TITLE "13:cjc020_5063"
    INDEX 01 00:37:44
  TRACK 39 AUDIO
    TITLE "0:"
    INDEX 01 00:38:49
  TRACK 40 AUDIO
    TITLE "14:cjc020_5064"
    INDEX 01 00:38:57
  TRACK 41 AUDIO
    TITLE "0:"
    INDEX 01 00:39:70
  TRACK 42 AUDIO
    TITLE "13:cjc020_5065"
    INDEX 01 00:40:50
  TRACK 43 AUDIO
    TITLE "0:"
    INDEX 01 00:41:55
  TRACK 44 AUDIO
    TITLE "14:cjc020_5066"
    INDEX 01 00:41:59
  TRACK 45 AUDIO
    TITLE "0:"
    INDEX 01 00:43:52
  TRACK 46 AUDIO
    TITLE "13:cjc020_5067"
    INDEX 01 00:44:32
  TRACK 47 AUDIO
    TITLE "0:"
    INDEX 01 00:45:32
  TRACK 48 AUDIO
    TITLE "14:cjc020_5068"
    INDEX 01 00:45:35
  TRACK 49 AUDIO
    TITLE "0:"
    INDEX 01 00:48:18
  TRACK 50 AUDIO
    TITLE "13:cjc020_5069"
    INDEX 01 00:48:69
  TRACK 51 AUDIO
    TITLE "0:"
    INDEX 01 00:49:70
  TRACK 52 AUDIO
    TITLE "14:cjc020_5070"
    INDEX 01 00:50:01
  TRACK 53 AUDIO
    TITLE "0:"
    INDEX 01 00:50:64
  TRACK 54 AUDIO
    TITLE "13:cjc020_5071"
    INDEX 01 00:51:44
  TRACK 55 AUDIO
    TITLE "0:"
    INDEX 01 00:52:41
  TRACK 56 AUDIO
    TITLE "14:cjc020_5072"
    INDEX 01 00:52:43
  TRACK 57 AUDIO
    TITLE "0:"
    INDEX 01 00:53:55
  TRACK 58 AUDIO
    TITLE "13:cjc020_5073"
    INDEX 01 00:54:34
  TRACK 59 AUDIO
    TITLE "0:"
    INDEX 01 00:55:38
  TRACK 60 AUDIO
    TITLE "14:cjc020_5074"
    INDEX 01 00:55:40
  TRACK 61 AUDIO
    TITLE "0:"
    INDEX 01 00:58:38
  TRACK 62 AUDIO
    TITLE "13:cjc020_5075"
    INDEX 01 00:59:16
  TRACK 63 AUDIO
    TITLE "0:"
    INDEX 01 01:00:13
  TRACK 64 AUDIO
    TITLE "14:cjc020_5076"
    INDEX 01 01:00:17
  TRACK 65 AUDIO
    TITLE "0:"
    INDEX 01 01:01:19
  TRACK 66 AUDIO
    TITLE "13:cjc020_5077"
    INDEX 01 01:01:74
  TRACK 67 AUDIO
    TITLE "0:"
    INDEX 01 01:03:08
  TRACK 68 AUDIO
    TITLE "14:cjc020_5078"
    INDEX 01 01:03:12
  TRACK 69 AUDIO
    TITLE "0:"
    INDEX 01 01:07:23
